HIERARCHY
ROOT Hips
{
	OFFSET	0.000000	0.000000	0.000000
	CHANNELS 6 Xposition Yposition Zposition Zrotation Xrotation Yrotation
	JOINT LeftUpLeg
	{
		OFFSET	12.811937	-7.635976	0.557276
		CHANNELS 3 Zrotation Xrotation Yrotation
		JOINT LeftLeg
		{
			OFFSET	-0.429270	-42.206159	-1.204951
			CHANNELS 3 Zrotation Xrotation Yrotation
			JOINT LeftFoot
			{
				OFFSET	-2.112259	-42.464481	-3.973220
				CHANNELS 3 Zrotation Xrotation Yrotation
				JOINT LeftFootHeel
				{
					OFFSET	0.387196	-5.329707	-3.419729
					CHANNELS 3 Zrotation Xrotation Yrotation
					End Site
					{
						OFFSET	0.327567	-0.000003	16.505428
					}
				}
			}
		}
	}
	JOINT RightUpLeg
	{
		OFFSET	-12.811937	-7.635976	0.557276
		CHANNELS 3 Zrotation Xrotation Yrotation
		JOINT RightLeg
		{
			OFFSET	0.429270	-42.206159	-1.204951
			CHANNELS 3 Zrotation Xrotation Yrotation
			JOINT RightFoot
			{
				OFFSET	2.112259	-42.464481	-3.973220
				CHANNELS 3 Zrotation Xrotation Yrotation
				JOINT RightFootHeel
				{
					OFFSET	-0.387198	-5.329707	-3.419729
					CHANNELS 3 Zrotation Xrotation Yrotation
					End Site
					{
						OFFSET	-0.327566	-0.000003	16.505428
					}
				}
			}
		}
	}
	JOINT Spine
	{
		OFFSET	0.000000	13.731315	-1.007646
		CHANNELS 3 Zrotation Xrotation Yrotation
		JOINT Spine1
		{
			OFFSET	0.000000	12.091746	-0.604589
			CHANNELS 3 Zrotation Xrotation Yrotation
			JOINT LeftShoulder
			{
				OFFSET	5.746115	20.990027	-0.833816
				CHANNELS 3 Zrotation Xrotation Yrotation
				JOINT LeftArm
				{
					OFFSET	10.881538	-1.359258	0.219250
					CHANNELS 3 Zrotation Xrotation Yrotation
					JOINT LeftForeArm
					{
						OFFSET	4.390314	-31.537147	0.202818
						CHANNELS 3 Zrotation Xrotation Yrotation
						JOINT LeftHand
						{
							OFFSET	3.168650	-24.865023	5.373370
							CHANNELS 3 Zrotation Xrotation Yrotation
							End Site
							{
								OFFSET	1.457528	-10.806075	2.170267
							}
						}
					}
				}
			}
			JOINT RightShoulder
			{
				OFFSET	-5.746115	20.990027	-0.833816
				CHANNELS 3 Zrotation Xrotation Yrotation
				JOINT RightArm
				{
					OFFSET	-10.881538	-1.359258	0.219250
					CHANNELS 3 Zrotation Xrotation Yrotation
					JOINT RightForeArm
					{
						OFFSET	-4.390314	-31.537147	0.202818
						CHANNELS 3 Zrotation Xrotation Yrotation
						JOINT RightHand
						{
							OFFSET	-3.168650	-24.865023	5.373370
							CHANNELS 3 Zrotation Xrotation Yrotation
							End Site
							{
								OFFSET	-1.457528	-10.806075	2.170267
							}
						}
					}
				}
			}
			JOINT Neck
			{
				OFFSET	0.000000	27.075639	0.680489
				CHANNELS 3 Zrotation Xrotation Yrotation
				JOINT Head
				{
					OFFSET	0.000000	12.391287	1.239129
					CHANNELS 3 Zrotation Xrotation Yrotation
					End Site
					{
						OFFSET	0.000000	13.818691	-0.105853
					}
				}
			}
		}
	}
}
MOTION
Frames:    11
Frame Time: 0.016667
-1.938497	100.306182	2.625534	1.255917	-0.365101	0.634010	-1.066665	0.235316	2.781908	1.048887	4.344680	-2.668409	-0.631656	-3.139890	-0.399859	0.	0.	0.	0.560050	0.864036	-1.372959	-1.806559	1.525861	3.046950	-0.356329	-1.771462	-1.826308	0.	0.	0.	-2.142475	-3.405670	-2.236756	-0.058819	7.206079	1.350185	2.470831	-1.186491	1.856007	-0.182395	-2.286572	-3.026756	0.456038	-0.615105	3.351393	6.265680	2.137629	-16.031820	1.131447	1.163493	3.056835	-16.793819	-9.697886	-18.286909	1.770423	-10.976676	-1.182423	-44.603081	-15.861122	-16.381203	2.125686	5.549255	-13.343781	15.827340	4.188444	-28.742338	
-1.962962	100.309321	2.619202	1.274369	-0.362190	0.685739	-1.080184	0.234799	2.772041	1.080682	4.271612	-2.670562	-0.670549	-3.069736	-0.441384	0.	0.	0.	0.568544	0.869529	-1.350472	-1.823941	1.514995	2.989305	-0.363260	-1.767103	-1.843575	0.	0.	0.	-2.132417	-3.396646	-2.220263	-0.083126	7.188023	1.351268	2.464017	-1.181891	1.995380	-0.244214	-2.297521	-3.188907	0.437249	-0.658757	3.377655	6.278422	2.119201	-16.040499	1.129927	1.170415	3.059084	-16.071247	-9.353548	-17.568331	1.242397	-10.908070	-1.246728	-44.189068	-16.193678	-15.805104	2.157057	5.604618	-13.222344	15.601325	4.057455	-28.270615	
-1.998144	100.322673	2.573328	1.351171	-0.349612	0.904540	-1.137466	0.232684	2.715405	1.124384	4.155241	-2.768219	-0.729859	-2.962440	-0.508519	0.	0.	0.	0.527754	0.867283	-1.477516	-1.847108	1.493756	2.964037	-0.370840	-1.766944	-1.914281	0.	0.	0.	-2.097311	-3.360184	-2.161676	-0.176889	7.115726	1.348906	2.468417	-1.155572	1.922043	-0.502035	-2.346234	-3.140980	0.344692	-0.742687	3.453940	6.349595	2.054976	-16.029442	1.211807	1.244433	3.038335	-15.019209	-8.899928	-16.830812	0.855484	-9.255761	0.111689	-42.713295	-17.651766	-12.828677	2.342601	5.757800	-12.652018	14.508260	3.446451	-26.269440	
-2.025968	100.327741	2.551284	1.392247	-0.342594	1.023893	-1.168792	0.231429	2.675788	1.144400	4.075135	-2.805235	-0.759487	-2.886811	-0.552065	0.	0.	0.	0.521103	0.870758	-1.505760	-1.874127	1.477773	2.913584	-0.373899	-1.772768	-1.959568	0.	0.	0.	-2.079886	-3.343091	-2.151507	-0.227454	7.080823	1.354592	2.493264	-1.127935	1.968252	-0.646654	-2.369216	-3.199475	0.323093	-0.758830	3.507940	6.357277	2.007180	-16.041624	1.264565	1.274694	3.022501	-14.294318	-8.652576	-16.356443	0.498584	-8.475765	0.623921	-42.029659	-18.297092	-11.426214	2.456455	5.809278	-12.340489	13.870784	3.098169	-25.203630	
-2.056250	100.333051	2.526187	1.434855	-0.335092	1.148724	-1.200796	0.230102	2.636425	1.141560	3.988005	-2.850888	-0.767013	-2.803347	-0.590976	0.	0.	0.	0.511988	0.874024	-1.541849	-1.894943	1.458297	2.879964	-0.382477	-1.775885	-2.019713	0.	0.	0.	-2.064444	-3.325748	-2.144609	-0.265036	7.044789	1.353076	2.543077	-1.102498	1.987772	-0.825091	-2.336858	-3.240149	0.332486	-0.788525	3.574019	6.349413	1.986220	-16.068832	1.305972	1.296824	3.010111	-13.575683	-8.411530	-15.867081	0.180075	-7.664795	1.139272	-41.149265	-18.712202	-10.421091	2.574692	5.820696	-12.056206	13.178026	2.759581	-24.073452	
-2.086671	100.338205	2.501156	1.477857	-0.327210	1.276608	-1.232070	0.228421	2.602665	1.137441	3.901353	-2.924487	-0.773001	-2.720499	-0.610558	0.	0.	0.	0.504151	0.877973	-1.575849	-1.918460	1.437830	2.843480	-0.389893	-1.779791	-2.082434	0.	0.	0.	-2.049239	-3.305915	-2.125180	-0.245343	7.000157	1.335126	2.545578	-1.074543	1.991026	-1.006236	-2.290334	-3.272977	0.318135	-0.783223	3.612420	6.362122	1.985454	-16.108599	1.295285	1.325498	2.997979	-12.855357	-8.158491	-15.346897	-0.132982	-6.885496	1.622040	-39.930595	-18.881254	-9.626012	2.649480	5.830763	-11.764241	12.448477	2.403632	-22.975170	
-2.096075	100.348437	2.467345	1.522063	-0.318777	1.410002	-1.263076	0.226825	2.574980	1.131663	3.896950	-3.030303	-0.773001	-2.720500	-0.610557	0.	0.	0.	0.461790	0.869458	-1.708942	-1.911927	1.428624	2.893222	-0.397499	-1.769927	-2.132298	0.	0.	0.	-2.034274	-3.282718	-2.086509	-0.220511	6.950817	1.299665	2.473799	-1.057481	1.847325	-1.102903	-2.239495	-3.167712	0.324782	-0.724298	3.646026	6.343863	1.989861	-16.191587	1.287611	1.334314	2.987912	-12.527678	-7.992394	-15.133509	-0.075382	-5.942795	2.309621	-38.340553	-18.830906	-8.729721	2.732840	5.834619	-11.465030	11.701631	2.034413	-21.924295	
-2.135971	100.347652	2.465427	1.543936	-0.314477	1.476806	-1.278250	0.226098	2.561339	1.127998	3.813474	-3.041429	-0.778574	-2.638839	-0.651551	0.	0.	0.	0.493980	0.885831	-1.625493	-1.956134	1.405821	2.771840	-0.401746	-1.779406	-2.167297	0.	0.	0.	-1.995655	-3.255915	-1.964547	-0.248533	6.904102	1.262350	2.563398	-1.034905	1.901315	-1.258024	-2.222642	-3.318144	0.331937	-0.671037	3.663200	6.334326	1.993403	-16.251040	1.343658	1.362339	2.990307	-11.364836	-7.595641	-14.226851	-0.840932	-5.513419	2.324022	-36.331463	-18.601213	-7.470852	2.854339	5.780064	-11.159830	11.283671	1.846854	-21.632765	
-2.190498	100.355636	2.422164	1.609408	-0.301402	1.674773	-1.323714	0.223931	2.521286	1.177909	3.672224	-3.073225	-0.850634	-2.506017	-0.779961	0.	0.	0.	0.484158	0.892817	-1.673456	-1.980460	1.363030	2.756809	-0.427560	-1.774827	-2.310996	0.	0.	0.	-2.002724	-3.230884	-1.968234	-0.283395	6.854720	1.235000	2.654655	-1.008941	1.941179	-1.467287	-2.227216	-3.341135	0.346320	-0.395340	3.698362	6.308312	2.009781	-16.446297	1.400216	1.413514	2.978478	-10.592823	-7.376477	-13.699513	-1.250497	-4.879249	2.546164	-33.903767	-18.270214	-5.831361	2.945568	5.708289	-10.832650	10.294177	1.398803	-19.750753	
-2.198278	100.364628	2.395804	1.650639	-0.293006	1.797873	-1.364703	0.219673	2.398266	1.177909	3.672224	-3.073225	-0.850634	-2.506017	-0.779961	0.	0.	0.	0.444597	0.884679	-1.796294	-1.980460	1.363030	2.756809	-0.427560	-1.774827	-2.310996	0.	0.	0.	-1.981081	-3.203221	-1.891682	-0.268801	6.798613	1.203753	2.592591	-0.991452	1.766855	-1.467287	-2.227216	-3.341134	0.311426	-0.184952	3.874424	6.302515	2.025709	-16.580807	1.403005	1.459724	2.942824	-9.814373	-7.189530	-13.221529	-1.659968	-4.259180	2.739786	-31.090048	-17.792326	-3.955476	2.982092	5.629181	-10.469498	9.611278	1.085883	-18.712229	
-2.244739	100.366847	2.369785	1.690444	-0.284721	1.916313	-1.386094	0.220302	2.424430	1.206155	3.582334	-3.119338	-0.896754	-2.423753	-0.879852	0.	0.	0.	0.457749	0.896272	-1.768532	-2.006347	1.320980	2.747052	-0.453482	-1.772310	-2.455093	0.	0.	0.	-1.959035	-3.173643	-1.799538	-0.242303	6.739729	1.160194	2.623293	-0.939274	1.795554	-1.700083	-2.222843	-3.239165	0.408035	0.017512	3.778965	6.297287	2.045693	-16.740324	1.393869	1.481812	2.894555	-9.047592	-6.995810	-12.800233	-2.042079	-3.697494	2.882270	-27.841974	-17.010233	-1.914110	3.009382	5.529162	-10.079387	8.921659	0.767560	-17.774754	
